<svg class="sc-Axmtr dBMFTu keySVG" xmlns="http://www.w3.org/2000/svg" viewBox="0 0 325 2500"><g transform="translate(0 0)" stroke="#4db39e" stroke-width="3"><line x1="0" y1="250" x2="250" y2="250"></line><line x1="0" y1="0" x2="0" y2="250"></line><line x1="250" y1="0" x2="250" y2="250" stroke="#4db39e"></line></g><rect x="0" y="0" width="250" height="250" fill="none" stroke="#4db39e" stroke-width="4"></rect><text x="290" y="165" style="font: 80px sans-serif; fill: rgb(77, 179, 158);">#1</text><g transform="translate(0 290)" stroke="#4db39e" stroke-width="3"><line x1="0" x2="125" y1="125" y2="0"></line><line x1="0" x2="250" y1="250" y2="0"></line><line x1="250" x2="250" y1="0" y2="0"></line><line x1="220" x2="250" y1="30" y2="30"></line><line x1="190" x2="250" y1="60" y2="60"></line><line x1="160" x2="250" y1="90" y2="90"></line><line x1="130" x2="250" y1="120" y2="120"></line><line x1="100.00000000000003" x2="250" y1="150" y2="150"></line><line x1="70.00000000000003" x2="250" y1="180" y2="180"></line><line x1="40.00000000000003" x2="250" y1="210" y2="210"></line><line x1="10.000000000000028" x2="250" y1="240" y2="240"></line></g><rect x="0" y="290" width="250" height="250" fill="none" stroke="#4db39e" stroke-width="4"></rect><text x="290" y="455" style="font: 80px sans-serif; fill: rgb(77, 179, 158);">#2</text><g transform="translate(0 580)" stroke="#4db39e" stroke-width="3"><line x1="0" x2="250" y1="0" y2="0"></line><line x1="0" x2="220" y1="30" y2="30"></line><line x1="0" x2="190" y1="60" y2="60"></line><line x1="0" x2="160" y1="90" y2="90"></line><line x1="0" x2="130" y1="120" y2="120"></line><line x1="0" x2="100.00000000000003" y1="150" y2="150"></line><line x1="0" x2="70.00000000000003" y1="180" y2="180"></line><line x1="0" x2="40.00000000000003" y1="210" y2="210"></line><line x1="0" x2="10.000000000000028" y1="240" y2="240"></line><line x1="0" x2="250" y1="250" y2="0"></line><line x1="20" x2="250" y1="250" y2="20"></line><line x1="40" x2="250" y1="250" y2="40"></line><line x1="60" x2="250" y1="250" y2="60"></line><line x1="80" x2="250" y1="250" y2="80"></line><line x1="100" x2="250" y1="250" y2="100"></line><line x1="120" x2="250" y1="250" y2="120"></line><line x1="140" x2="250" y1="250" y2="140"></line><line x1="160" x2="250" y1="250" y2="160"></line><line x1="180" x2="250" y1="250" y2="180"></line><line x1="200" x2="250" y1="250" y2="200"></line><line x1="220" x2="250" y1="250" y2="220"></line><line x1="240" x2="250" y1="250" y2="240"></line></g><rect x="0" y="580" width="250" height="250" fill="none" stroke="#4db39e" stroke-width="4"></rect><text x="290" y="745" style="font: 80px sans-serif; fill: rgb(77, 179, 158);">#3</text><g transform="translate(0 870)" stroke="#4db39e" stroke-width="3"><line x1="0" x2="0" y1="0" y2="0"></line><line x1="0" x2="20" y1="20" y2="0"></line><line x1="0" x2="40" y1="40" y2="0"></line><line x1="0" x2="60" y1="60" y2="0"></line><line x1="0" x2="80" y1="80" y2="0"></line><line x1="0" x2="100" y1="100" y2="0"></line><line x1="0" x2="120" y1="120" y2="0"></line><line x1="0" x2="140" y1="140" y2="0"></line><line x1="0" x2="160" y1="160" y2="0"></line><line x1="0" x2="180" y1="180" y2="0"></line><line x1="0" x2="200" y1="200" y2="0"></line><line x1="0" x2="220" y1="220" y2="0"></line><line x1="0" x2="240" y1="240" y2="0"></line><line x1="0" x2="250" y1="250" y2="0"></line><line x1="125" x2="250" y1="250" y2="125"></line></g><rect x="0" y="870" width="250" height="250" fill="none" stroke="#4db39e" stroke-width="4"></rect><text x="290" y="1035" style="font: 80px sans-serif; fill: rgb(77, 179, 158);">#4</text><g transform="translate(0 1160)" stroke="#4db39e" stroke-width="3"><line x1="0" x2="250" y1="0" y2="0"></line><line x1="0" x2="250" y1="30" y2="30"></line><line x1="0" x2="250" y1="60" y2="60"></line><line x1="0" x2="250" y1="90" y2="90"></line><line x1="0" x2="250" y1="120" y2="120"></line><line x1="0" x2="250" y1="150" y2="150"></line><line x1="0" x2="250" y1="180" y2="180"></line><line x1="0" x2="250" y1="210" y2="210"></line><line x1="0" x2="250" y1="240" y2="240"></line></g><rect x="0" y="1160" width="250" height="250" fill="none" stroke="#4db39e" stroke-width="4"></rect><text x="290" y="1325" style="font: 80px sans-serif; fill: rgb(77, 179, 158);">#5</text><g transform="translate(0 1450)" stroke="#4db39e" stroke-width="3"><line x1="0" x2="20" y1="20" y2="0"></line><line x1="0" x2="40" y1="40" y2="0"></line><line x1="0" x2="60" y1="60" y2="0"></line><line x1="0" x2="80" y1="80" y2="0"></line><line x1="0" x2="100" y1="100" y2="0"></line><line x1="0" x2="120" y1="120" y2="0"></line><line x1="0" x2="140" y1="140" y2="0"></line><line x1="0" x2="160" y1="160" y2="0"></line><line x1="0" x2="180" y1="180" y2="0"></line><line x1="0" x2="200" y1="200" y2="0"></line><line x1="0" x2="220" y1="220" y2="0"></line><line x1="0" x2="240" y1="240" y2="0"></line><line x1="10" x2="250" y1="250" y2="10"></line><line x1="30" x2="250" y1="250" y2="30"></line><line x1="50" x2="250" y1="250" y2="50"></line><line x1="70" x2="250" y1="250" y2="70"></line><line x1="90" x2="250" y1="250" y2="90"></line><line x1="110" x2="250" y1="250" y2="110"></line><line x1="130" x2="250" y1="250" y2="130"></line><line x1="150" x2="250" y1="250" y2="150"></line><line x1="170" x2="250" y1="250" y2="170"></line><line x1="190" x2="250" y1="250" y2="190"></line><line x1="210" x2="250" y1="250" y2="210"></line><line x1="230" x2="250" y1="250" y2="230"></line><line x1="250" x2="250" y1="250" y2="250"></line></g><rect x="0" y="1450" width="250" height="250" fill="none" stroke="#4db39e" stroke-width="4"></rect><text x="290" y="1615" style="font: 80px sans-serif; fill: rgb(77, 179, 158);">#6</text><g transform="translate(0 1740)" stroke="#4db39e" stroke-width="3"><line x1="0" x2="125" y1="125" y2="0"></line><line x1="0" x2="250" y1="250" y2="0"></line><line x1="125" x2="250" y1="250" y2="125"></line></g><rect x="0" y="1740" width="250" height="250" fill="none" stroke="#4db39e" stroke-width="4"></rect><text x="290" y="1905" style="font: 80px sans-serif; fill: rgb(77, 179, 158);">#7</text><g transform="translate(0 2030)" stroke="#4db39e" stroke-width="3"><line x1="0" x2="0" y1="0" y2="0"></line><line x1="0" x2="20" y1="20" y2="0"></line><line x1="0" x2="40" y1="40" y2="0"></line><line x1="0" x2="60" y1="60" y2="0"></line><line x1="0" x2="80" y1="80" y2="0"></line><line x1="0" x2="100" y1="100" y2="0"></line><line x1="0" x2="120" y1="120" y2="0"></line><line x1="0" x2="140" y1="140" y2="0"></line><line x1="0" x2="160" y1="160" y2="0"></line><line x1="0" x2="180" y1="180" y2="0"></line><line x1="0" x2="200" y1="200" y2="0"></line><line x1="0" x2="220" y1="220" y2="0"></line><line x1="0" x2="240" y1="240" y2="0"></line><line x1="250" x2="250" y1="0" y2="0"></line><line x1="220" x2="250" y1="30" y2="30"></line><line x1="190" x2="250" y1="60" y2="60"></line><line x1="160" x2="250" y1="90" y2="90"></line><line x1="130" x2="250" y1="120" y2="120"></line><line x1="100.00000000000003" x2="250" y1="150" y2="150"></line><line x1="70.00000000000003" x2="250" y1="180" y2="180"></line><line x1="40.00000000000003" x2="250" y1="210" y2="210"></line><line x1="10.000000000000028" x2="250" y1="240" y2="240"></line></g><rect x="0" y="2030" width="250" height="250" fill="none" stroke="#4db39e" stroke-width="4"></rect><text x="290" y="2195" style="font: 80px sans-serif; fill: rgb(77, 179, 158);">#8</text></svg>